<?xml version="1.0" encoding="utf-8"?>
<!-- Generator: Adobe Illustrator 25.0.0, SVG Export Plug-In . SVG Version: 6.00 Build 0)  -->
<svg version="1.1" id="Layer_1" xmlns="http://www.w3.org/2000/svg" xmlns:xlink="http://www.w3.org/1999/xlink" x="0px" y="0px"
	 viewBox="0 0 299.3 299.3" style="enable-background:new 0 0 299.3 299.3;" xml:space="preserve">
<style type="text/css">
	.st0{fill:#FFFFFF;}
</style>
<g>
	<g>
		<g>
			<path class="st0" d="M258,0H41.2c-3.8,0-6.8,3.1-6.8,6.8v285.6c0,3.8,3.1,6.8,6.8,6.8H258c3.8,0,6.8-3.1,6.8-6.8V6.8
				C264.9,3.1,261.8,0,258,0z M48,285.6v-272h203.2v272L48,285.6L48,285.6z"/>
			<path class="st0" d="M216.5,50.3H82.8c-3.8,0-6.8,3.1-6.8,6.8v87.4c0,3.8,3.1,6.8,6.8,6.8h133.8c3.8,0,6.8-3.1,6.8-6.8V57.1
				C223.3,53.3,220.3,50.3,216.5,50.3z M209.7,137.6H89.6V63.9h120.1L209.7,137.6L209.7,137.6z"/>
			<path class="st0" d="M216.5,181.9H82.8c-3.8,0-6.8,3.1-6.8,6.8s3.1,6.8,6.8,6.8h133.8c3.8,0,6.8-3.1,6.8-6.8
				S220.3,181.9,216.5,181.9z"/>
			<path class="st0" d="M195.1,226.3h-91c-3.8,0-6.8,3.1-6.8,6.8s3.1,6.8,6.8,6.8h91c3.8,0,6.8-3.1,6.8-6.8S198.9,226.3,195.1,226.3
				z"/>
		</g>
	</g>
</g>
</svg>
